<svg width="40.000000" height="40.000000" viewBox="0 0 40 40" fill="none" xmlns="http://www.w3.org/2000/svg" xmlns:xlink="http://www.w3.org/1999/xlink">
	<desc>
			Created with Pixso.
	</desc>
	<defs/>
	<path id="icon-search-white" d="M28.5715 25.1429L26.7429 25.1429L26.0571 24.4571C28.3428 21.9429 29.7144 18.5143 29.7144 14.8571C29.7144 6.62857 23.0857 0 14.8572 0C6.62866 0 0 6.62857 0 14.8571C0 23.0857 6.62866 29.7143 14.8572 29.7143C18.5144 29.7143 21.9429 28.3429 24.457 26.0571L25.1428 26.7429L25.1428 28.5714L36.5715 40L40 36.5714L28.5715 25.1429ZM4.57129 14.8571C4.57129 20.5714 9.14282 25.1429 14.8569 25.1429C20.5713 25.1429 25.1428 20.5714 25.1428 14.8571C25.1428 9.14286 20.5713 4.57143 14.8569 4.57143C9.14282 4.57143 4.57129 9.14286 4.57129 14.8571Z" clip-rule="evenodd" fill="#FFFFFF" fill-opacity="1.000000" fill-rule="evenodd"/>
</svg>
